<?xml version="1.0" encoding="UTF-8"?>
<svg version="1.1" xmlns="http://www.w3.org/2000/svg" width="200" height="200">
<path d="M0 0 C10.2697747 8.79154955 18.09110817 20.15645848 19.265625 33.95703125 C20.24111603 47.22370931 16.93915662 59.08531739 8.31202698 69.26138306 C-1.89072066 80.43634715 -12.65141761 91.07830177 -23.33203125 101.79296875 C-24.42366348 102.88865925 -25.51526619 103.98437915 -26.60684013 105.08012772 C-31.73006492 110.22230791 -36.85563284 115.36213813 -41.98414522 120.49904478 C-47.86959005 126.39428902 -53.74662608 132.29775557 -59.61680228 138.20820272 C-64.18332114 142.80495604 -68.75756072 147.39393523 -73.33756822 151.97724879 C-76.06122947 154.70324773 -78.78156063 157.43237522 -81.49370003 160.16984177 C-84.04180468 162.74136821 -86.59943598 165.30303545 -89.16438103 167.85776138 C-90.53838661 169.23104287 -91.90253241 170.61416786 -93.26623535 171.99768066 C-103.80789783 182.45212474 -115.63777328 188.95381119 -130.734375 189.45703125 C-144.71685106 188.99094871 -157.26131152 183.39531114 -166.8515625 173.22265625 C-176.52733631 161.57960893 -180.31561047 150.05301259 -179.58984375 134.94921875 C-177.25418872 115.69931463 -163.95293495 104.30272364 -150.72857666 91.52886963 C-147.74846418 88.64322091 -144.79138823 85.73400456 -141.83245087 82.82667351 C-139.52952257 80.56429795 -137.22202278 78.30718533 -134.90393066 76.06033325 C-130.52589906 71.80076764 -126.35141571 67.47652103 -122.37826538 62.83764648 C-119.64459128 59.7103156 -116.7105436 56.79038162 -113.76953125 53.859375 C-113.13252792 53.22141495 -112.4955246 52.5834549 -111.83921814 51.92616272 C-110.5034957 50.58976551 -109.16653265 49.2546072 -107.82836914 47.9206543 C-105.8017452 45.89938857 -103.78051953 43.87283551 -101.75976562 41.84570312 C-96.22451772 36.30815129 -90.71836423 30.83473654 -84.7409668 25.77172852 C-82.02792281 23.31813855 -79.50911494 20.68736839 -76.9765625 18.05078125 C-75.9271384 16.96609255 -74.87765846 15.88145789 -73.828125 14.796875 C-72.2200305 13.13364862 -70.61804243 11.46623804 -69.03222656 9.78173828 C-50.19969125 -10.16857647 -23.59909615 -17.63189612 0 0 Z M-59.734375 14.95703125 C-60.75601935 16.13607854 -61.77223499 17.3198382 -62.78488159 18.50662231 C-67.05711209 23.40422663 -71.63795569 27.95603036 -76.26220703 32.51904297 C-77.68873006 33.93346188 -79.11524915 35.34788477 -80.54162002 36.76245713 C-82.06037002 38.26785774 -83.58030847 39.77205021 -85.10046768 41.27602768 C-88.28262856 44.4252976 -91.45860549 47.58075513 -94.63327026 50.73757935 C-95.72484772 51.82289703 -96.81642525 52.90821464 -97.90800285 53.99353218 C-98.4542386 54.5366518 -99.00047435 55.07977143 -99.5632627 55.63934922 C-106.94305459 62.97629195 -114.32736806 70.30859258 -121.72607422 77.62646484 C-126.73392213 82.57969578 -131.73270661 87.54188239 -136.72146118 92.51434529 C-139.35463364 95.13818678 -141.99212768 97.75731653 -144.64087296 100.36544418 C-147.5960804 103.27545297 -150.53124874 106.20492385 -153.46533203 109.13623047 C-154.76837784 110.40995514 -154.76837784 110.40995514 -156.0977478 111.70941162 C-163.76579227 119.42919327 -169.64309118 128.63879309 -169.765625 139.8046875 C-169.12175289 152.53725839 -163.5637156 161.59076685 -154.421875 170.20703125 C-146.51882058 177.00205608 -138.23130224 179.34691839 -127.96484375 179.234375 C-113.76593157 178.01536319 -104.62761956 168.15145149 -95.08325195 158.58056641 C-94.03641339 157.53808326 -92.98916039 156.49601615 -91.94152832 155.45433044 C-89.11675092 152.64286191 -86.29832708 149.8251072 -83.48146844 147.00570726 C-81.12244539 144.64560943 -78.76044106 142.28850622 -76.39849252 139.93133676 C-70.82443295 134.36834332 -65.25568224 128.80007476 -59.69018555 123.22851562 C-53.96167131 117.49395723 -48.22402964 111.76864887 -42.48186332 106.04776347 C-37.5378027 101.1213487 -32.59960099 96.18911397 -27.66598099 91.2522434 C-24.72548215 88.30993706 -21.78283439 85.36986722 -18.83446693 82.43544388 C-16.06240593 79.67600602 -13.29776748 76.90933632 -10.53852081 74.13708687 C-9.52893014 73.125141 -8.51681212 72.11570885 -7.50190544 71.10909462 C2.34301135 61.33879767 8.12250847 53.08177765 9.703125 39.08203125 C9.08920606 26.62459267 3.1897551 17.37940559 -5.671875 9.14453125 C-23.6369285 -5.80903929 -44.26827721 -0.63838174 -59.734375 14.95703125 Z " fill="#62656A" transform="translate(180.734375,10.04296875)"/>
<path d="M0 0 C5.07949678 2.34001323 8.49952162 5.81437262 12.38818359 9.77807617 C13.21935699 10.60588089 14.0505304 11.43368561 14.90689087 12.28657532 C16.65714651 14.03712947 18.39995655 15.79515551 20.13574219 17.56005859 C22.79465168 20.25864967 25.48165907 22.92666859 28.17333984 25.5925293 C29.87171373 27.29846188 31.56838772 29.00608888 33.26318359 30.71557617 C34.46930801 31.91122444 34.46930801 31.91122444 35.69979858 33.13102722 C38.66221935 36.16965778 41.05038547 38.78389122 42.875 42.6328125 C42.13325445 47.513207 38.82997066 50.1853448 35.42724609 53.57885742 C34.46345535 54.59035355 34.46345535 54.59035355 33.48019409 55.62228394 C29.14381446 60.17158042 24.70234885 64.62036434 20.27514648 69.08105469 C18.66105224 70.71182447 17.05235862 72.34795649 15.44897461 73.98925781 C13.11909821 76.37376481 10.77331748 78.7415221 8.42333984 81.10620117 C7.71068466 81.84152573 6.99802948 82.57685028 6.26377869 83.3344574 C3.43491981 86.15141927 1.05931864 88.2829094 -2.57250977 89.98339844 C-7.50054214 89.31892211 -10.15716621 86.00018868 -13.57275391 82.57885742 C-14.84877462 81.37120182 -16.12537822 80.16416177 -17.40258789 78.95776367 C-20.88598913 75.57987998 -24.34320248 72.17538232 -27.79321289 68.76342773 C-29.27761218 67.3007689 -30.76825107 65.84441686 -32.26489258 64.39428711 C-34.44335893 62.28267115 -36.60152864 60.15206716 -38.75634766 58.01635742 C-39.42605087 57.37448486 -40.09575409 56.7326123 -40.78575134 56.07128906 C-43.60363936 53.24068363 -45.42091018 50.91786662 -47.06518555 47.24682617 C-46.23474193 41.06111225 -41.83342986 37.70124772 -37.51025391 33.45385742 C-36.56034999 32.49856122 -35.61163607 31.5420804 -34.6640625 30.58447266 C-32.67582944 28.58445978 -30.67388609 26.59959296 -28.66113281 24.62426758 C-26.08561672 22.09433765 -23.54770193 19.53017015 -21.01899719 16.95355225 C-19.06706736 14.97267443 -17.09643208 13.01129609 -15.11965942 11.05523682 C-13.71813516 9.66162363 -12.33267181 8.25191834 -10.94750977 6.84204102 C-4.68087515 0.75839517 -4.68087515 0.75839517 0 0 Z M-3.02810669 14.79370117 C-3.59214203 15.36217773 -4.15617737 15.9306543 -4.73730469 16.51635742 C-5.37781769 17.15702148 -6.01833069 17.79768555 -6.67825317 18.45776367 C-7.36789154 19.15772461 -8.05752991 19.85768555 -8.76806641 20.57885742 C-9.82923172 21.64426758 -9.82923172 21.64426758 -10.91183472 22.73120117 C-13.17852546 25.00912012 -15.43817829 27.29388255 -17.69775391 29.57885742 C-19.22984867 31.12097857 -20.76239495 32.66265128 -22.29541016 34.20385742 C-26.05978647 37.99032911 -29.81840167 41.7824479 -33.57275391 45.57885742 C-31.64414926 49.79562147 -28.74305252 52.66207533 -25.47119141 55.87573242 C-24.87472809 56.46936584 -24.27826477 57.06299927 -23.66372681 57.67462158 C-21.76305581 59.56412369 -19.85553916 61.44654134 -17.94775391 63.32885742 C-16.65562922 64.61094807 -15.36395715 65.89349504 -14.07275391 67.17651367 C-10.91130912 70.31594174 -7.74370781 73.44903543 -4.57275391 76.57885742 C-1.66731519 75.26508826 0.39385668 73.85829251 2.63525391 71.59790039 C3.53573456 70.69719315 3.53573456 70.69719315 4.45440674 69.77828979 C5.08997498 69.13239899 5.72554321 68.48650818 6.38037109 67.82104492 C7.04059265 67.15799347 7.70081421 66.49494202 8.38104248 65.8117981 C10.48452433 63.6971391 12.58093751 61.5756253 14.67724609 59.45385742 C16.1038687 58.01720185 17.53094681 56.58099844 18.95849609 55.14526367 C22.4533827 51.62834938 25.94194671 48.10527195 29.42724609 44.57885742 C27.50444166 40.38478782 24.63586822 37.49900332 21.39599609 34.28198242 C20.80427612 33.688349 20.21255615 33.09471558 19.60290527 32.48309326 C18.35459028 31.23342024 17.10375787 29.98625751 15.85058594 28.74145508 C13.92716613 26.8287779 12.0146851 24.90562623 10.10302734 22.98120117 C8.8888247 21.76831944 7.67400217 20.5560579 6.45849609 19.34448242 C5.88450073 18.7664386 5.31050537 18.18839478 4.71911621 17.59283447 C1.2574046 13.49293566 1.2574046 13.49293566 -3.02810669 14.79370117 Z " fill="#616469" transform="translate(102.57275390625,54.421142578125)"/>
<path d="M0 0 C3.0625 0.1875 3.0625 0.1875 5.0625 2.1875 C4.6875 5.3125 4.6875 5.3125 4.0625 8.1875 C1.75 8.8125 1.75 8.8125 -0.9375 9.1875 C-1.9275 8.5275 -2.9175 7.8675 -3.9375 7.1875 C-4.1875 4.125 -4.1875 4.125 -3.9375 1.1875 C-2.9375 0.1875 -2.9375 0.1875 0 0 Z " fill="#64666B" transform="translate(55.9375,164.8125)"/>
<path d="M0 0 C3.0625 0.1875 3.0625 0.1875 5.0625 2.1875 C4.6875 5.3125 4.6875 5.3125 4.0625 8.1875 C1.75 8.8125 1.75 8.8125 -0.9375 9.1875 C-1.9275 8.5275 -2.9175 7.8675 -3.9375 7.1875 C-4.1875 4.125 -4.1875 4.125 -3.9375 1.1875 C-2.9375 0.1875 -2.9375 0.1875 0 0 Z " fill="#63656A" transform="translate(29.9375,138.8125)"/>
<path d="M0 0 C2.5625 0.1875 2.5625 0.1875 4.5625 2.1875 C4.8125 4.6875 4.8125 4.6875 4.5625 7.1875 C2.5625 9.1875 2.5625 9.1875 0.0625 9.5 C-1.175 9.3453125 -1.175 9.3453125 -2.4375 9.1875 C-4.4375 6.1875 -4.4375 6.1875 -4.125 3.5625 C-3.16420807 0.24340062 -3.16420807 0.24340062 0 0 Z " fill="#66696D" transform="translate(48.4375,146.8125)"/>
<path d="M0 0 C1 1 1 1 1.0625 4.0625 C1.041875 5.031875 1.02125 6.00125 1 7 C-1.31 7.33 -3.62 7.66 -6 8 C-8 5 -8 5 -7.75 2.375 C-7.5025 1.59125 -7.255 0.8075 -7 0 C-4.31633121 -1.3418344 -2.84719317 -0.73004953 0 0 Z " fill="#63666B" transform="translate(80,145)"/>
<path d="M0 0 C2.5625 0.1875 2.5625 0.1875 4.5625 2.1875 C4.8125 4.6875 4.8125 4.6875 4.5625 7.1875 C2.5625 9.1875 2.5625 9.1875 0.0625 9.5 C-1.175 9.3453125 -1.175 9.3453125 -2.4375 9.1875 C-4.4375 6.1875 -4.4375 6.1875 -4.125 3.5625 C-3.16420807 0.24340062 -3.16420807 0.24340062 0 0 Z " fill="#64676B" transform="translate(68.4375,126.8125)"/>
<path d="M0 0 C2.5625 0.1875 2.5625 0.1875 4.5625 2.1875 C4.8125 4.6875 4.8125 4.6875 4.5625 7.1875 C2.5625 9.1875 2.5625 9.1875 0.0625 9.5 C-1.175 9.3453125 -1.175 9.3453125 -2.4375 9.1875 C-4.4375 6.1875 -4.4375 6.1875 -4.125 3.5625 C-3.16420807 0.24340062 -3.16420807 0.24340062 0 0 Z " fill="#66696D" transform="translate(50.4375,117.8125)"/>
<path d="M0 0 C2.375 0.6875 2.375 0.6875 3.375 1.6875 C3.5625 4.125 3.5625 4.125 3.375 6.6875 C1.375 8.6875 1.375 8.6875 -1.125 8.9375 C-3.625 8.6875 -3.625 8.6875 -5.625 6.6875 C-5.9375 4.1875 -5.9375 4.1875 -5.625 1.6875 C-2.625 -0.3125 -2.625 -0.3125 0 0 Z " fill="#64666B" transform="translate(133.625,63.3125)"/>
<path d="M0 0 C2.5625 0.1875 2.5625 0.1875 4.5625 2.1875 C4.8125 4.6875 4.8125 4.6875 4.5625 7.1875 C2.5625 9.1875 2.5625 9.1875 0.0625 9.5 C-1.175 9.3453125 -1.175 9.3453125 -2.4375 9.1875 C-4.4375 6.1875 -4.4375 6.1875 -4.125 3.5625 C-3.16420807 0.24340062 -3.16420807 0.24340062 0 0 Z " fill="#64666B" transform="translate(159.4375,60.8125)"/>
<path d="M0 0 C0.763125 0.20625 1.52625 0.4125 2.3125 0.625 C2.9375 3.5 2.9375 3.5 3.3125 6.625 C1.3125 8.625 1.3125 8.625 -1.8125 8.75 C-3.235625 8.688125 -3.235625 8.688125 -4.6875 8.625 C-5.0175 6.315 -5.3475 4.005 -5.6875 1.625 C-2.6875 -0.375 -2.6875 -0.375 0 0 Z " fill="#63666B" transform="translate(124.6875,45.375)"/>
<path d="M0 0 C0.763125 0.20625 1.52625 0.4125 2.3125 0.625 C2.9375 3.5 2.9375 3.5 3.3125 6.625 C1.3125 8.625 1.3125 8.625 -1.8125 8.75 C-3.235625 8.688125 -3.235625 8.688125 -4.6875 8.625 C-5.0175 6.315 -5.3475 4.005 -5.6875 1.625 C-2.6875 -0.375 -2.6875 -0.375 0 0 Z " fill="#63666A" transform="translate(153.6875,43.375)"/>
<path d="M0 0 C2.5625 0.1875 2.5625 0.1875 4.5625 2.1875 C4.8125 4.6875 4.8125 4.6875 4.5625 7.1875 C2.5625 9.1875 2.5625 9.1875 0.0625 9.5 C-1.175 9.3453125 -1.175 9.3453125 -2.4375 9.1875 C-4.4375 6.1875 -4.4375 6.1875 -4.125 3.5625 C-3.16420807 0.24340062 -3.16420807 0.24340062 0 0 Z " fill="#65676C" transform="translate(133.4375,34.8125)"/>
<path d="M0 0 C2.31 0.33 4.62 0.66 7 1 C7.125 3.875 7.125 3.875 7 7 C6.34 7.66 5.68 8.32 5 9 C1.875 8.625 1.875 8.625 -1 8 C-1.625 5.6875 -1.625 5.6875 -2 3 C-1.34 2.01 -0.68 1.02 0 0 Z " fill="#63666A" transform="translate(160,33)"/>
<path d="M0 0 C1.134375 0.020625 2.26875 0.04125 3.4375 0.0625 C4.5625 5.8125 4.5625 5.8125 3.4375 8.0625 C1.10455225 8.10491723 -1.22952567 8.10342937 -3.5625 8.0625 C-4.5625 7.0625 -4.5625 7.0625 -4.6875 4.0625 C-4.50687014 -0.27261656 -4.44520527 0.07798606 0 0 Z " fill="#64666B" transform="translate(38.5625,157.9375)"/>
<path d="M0 0 C1.134375 0.020625 2.26875 0.04125 3.4375 0.0625 C4.5625 5.8125 4.5625 5.8125 3.4375 8.0625 C1.1275 8.0625 -1.1825 8.0625 -3.5625 8.0625 C-3.94313221 5.7364143 -4.27519945 3.40194736 -4.5625 1.0625 C-3.5625 0.0625 -3.5625 0.0625 0 0 Z " fill="#65686C" transform="translate(40.5625,128.9375)"/>
<path d="M0 0 C2.31 0 4.62 0 7 0 C8.125 5.75 8.125 5.75 7 8 C4.69 8 2.38 8 0 8 C-1.125 2.25 -1.125 2.25 0 0 Z " fill="#66696D" transform="translate(63,155)"/>
<path d="M0 0 C3 0.125 3 0.125 4 1.125 C4.1875 4.0625 4.1875 4.0625 4 7.125 C3.34 7.785 2.68 8.445 2 9.125 C-2.55555556 8.56944444 -2.55555556 8.56944444 -4 7.125 C-4.125 4.125 -4.125 4.125 -4 1.125 C-3 0.125 -3 0.125 0 0 Z " fill="#626469" transform="translate(59,136.875)"/>
<path d="M0 0 C1.134375 0.020625 2.26875 0.04125 3.4375 0.0625 C4.0625 2.9375 4.0625 2.9375 4.4375 6.0625 C2.4375 8.0625 2.4375 8.0625 -0.6875 8.1875 C-2.110625 8.125625 -2.110625 8.125625 -3.5625 8.0625 C-3.94313221 5.7364143 -4.27519945 3.40194736 -4.5625 1.0625 C-3.5625 0.0625 -3.5625 0.0625 0 0 Z " fill="#63666A" transform="translate(149.5625,71.9375)"/>
<path d="M0 0 C3 0.125 3 0.125 4 1.125 C4.1875 4.0625 4.1875 4.0625 4 7.125 C3.34 7.785 2.68 8.445 2 9.125 C-2.55555556 8.56944444 -2.55555556 8.56944444 -4 7.125 C-4.125 4.125 -4.125 4.125 -4 1.125 C-3 0.125 -3 0.125 0 0 Z " fill="#616468" transform="translate(170,50.875)"/>
<path d="M0 0 C3 0.125 3 0.125 4 1.125 C4.1875 4.0625 4.1875 4.0625 4 7.125 C3.34 7.785 2.68 8.445 2 9.125 C-2.55555556 8.56944444 -2.55555556 8.56944444 -4 7.125 C-4.125 4.125 -4.125 4.125 -4 1.125 C-3 0.125 -3 0.125 0 0 Z " fill="#626469" transform="translate(144,24.875)"/>
<path d="M0 0 C3 0.125 3 0.125 4 1.125 C4.125 4.125 4.125 4.125 4 7.125 C3 8.125 3 8.125 0 8.25 C-3 8.125 -3 8.125 -4 7.125 C-4.125 4.125 -4.125 4.125 -4 1.125 C-3 0.125 -3 0.125 0 0 Z " fill="#606367" transform="translate(142,53.875)"/>
</svg>
