<?xml version="1.0" encoding="UTF-8"?>
<svg version="1.1" xmlns="http://www.w3.org/2000/svg" width="512" height="512">
<path d="M0 0 C1.12537422 -0.01210762 1.12537422 -0.01210762 2.27348328 -0.02445984 C3.86109149 -0.03824029 5.44872857 -0.04898922 7.03637695 -0.05688477 C8.62533548 -0.06829993 10.21425894 -0.0885816 11.80297852 -0.1184082 C41.9295944 -0.68208169 69.12189748 11.09716274 90.8817749 31.72763062 C94.88451782 35.6067842 98.8044031 39.56710397 102.72265625 43.53125 C104.15929961 44.97350552 105.59661931 46.41508763 107.03457642 47.85603333 C110.77296864 51.6057469 114.50225373 55.36438623 118.22955322 59.12512207 C122.05239982 62.97894731 125.884014 66.82403497 129.71484375 70.66992188 C137.1972859 78.18430315 144.67011209 85.7081672 152.13671875 93.23828125 C156.44315823 91.58614478 159.28860856 88.32295709 162.44311523 85.09545898 C163.06655319 84.46588791 163.68999115 83.83631683 164.33232117 83.18766785 C165.68544974 81.82024025 167.03633035 80.45058536 168.38522148 79.07897758 C170.53016987 76.89915412 172.68221211 74.72657353 174.83644104 72.55592346 C180.96067751 66.38289709 187.07393192 60.1990869 193.17749023 54.00561523 C196.91461081 50.21445959 200.66179766 46.4334881 204.41505623 42.65831184 C205.83445388 41.22661164 207.25006229 39.79114323 208.66155815 38.35165215 C219.16974066 27.63714953 229.84902455 18.61477756 243.19921875 11.55078125 C244.23816284 10.99970703 244.23816284 10.99970703 245.2980957 10.4375 C257.79141455 4.10994858 271.9924023 0.14715486 286 0 C286.75024948 -0.00807175 287.50049896 -0.01614349 288.27348328 -0.02445984 C289.86109149 -0.03824029 291.44872857 -0.04898922 293.03637695 -0.05688477 C294.62533548 -0.06829993 296.21425894 -0.0885816 297.80297852 -0.1184082 C314.32056787 -0.42745477 328.91875477 2.5902274 344.13671875 9.23828125 C345.09578125 9.64433594 346.05484375 10.05039063 347.04296875 10.46875 C371.52270977 21.6886313 392.41609805 44.15823823 402.13671875 69.23828125 C406.0150409 80.37988442 409.25032565 91.23387321 409.375 103.1015625 C409.38307175 103.85181198 409.39114349 104.60206146 409.39945984 105.37504578 C409.41324029 106.96265399 409.42398922 108.55029107 409.43188477 110.13793945 C409.44329993 111.72689798 409.4635816 113.31582144 409.4934082 114.90454102 C409.95207859 139.41906406 402.49937542 163.55096455 387.14239979 182.90758896 C386.66619717 183.5093335 386.18999455 184.11107805 385.69936155 184.73105727 C380.43661072 191.26662551 374.6147782 197.18150549 368.67082214 203.09185791 C367.4497366 204.31712841 366.22930146 205.54304737 365.00945169 206.76954818 C361.69313547 210.10018471 358.36768781 213.42156441 355.04049861 216.74133444 C351.43922683 220.33784342 347.84663348 223.94300492 344.25285339 227.54699707 C337.22621673 234.59076515 330.19149102 241.62639941 323.15365835 248.65897921 C317.43073033 254.37785452 311.71056904 260.09948341 305.99233437 265.82305145 C305.17635995 266.63977429 304.36038553 267.45649713 303.51968462 268.29796915 C301.86170635 269.95747899 300.20373148 271.61699221 298.54575995 273.27650878 C283.02407571 288.81189703 267.4928509 304.33771946 251.95857153 319.86051199 C237.76523409 334.04391436 223.58337272 348.23872762 209.40696653 362.43905118 C194.82573615 377.0446952 180.23710409 391.64290722 165.64033872 406.23302627 C157.455336 414.41454244 149.27319629 422.5988715 141.09871483 430.79090118 C134.14179378 437.76257231 127.17782561 444.72711084 120.20483466 451.68271044 C116.65173583 455.22732106 113.10184516 458.77498733 109.56067657 462.33152008 C106.3116392 465.5944787 103.05331602 468.84786942 99.78771202 472.0942454 C98.61541935 473.26280057 97.44640067 474.43465275 96.2812449 475.61032417 C86.36573492 485.60884929 75.55689676 494.43154511 63.01171875 500.98828125 C62.32287598 501.35115234 61.6340332 501.71402344 60.92431641 502.08789062 C45.64310317 509.77441231 29.85748905 512.4346005 12.90625 512.47851562 C10.67018201 512.48813726 8.43506856 512.51917913 6.19921875 512.55078125 C-23.76520178 512.77348418 -50.85047507 500.17733206 -72.11328125 479.42578125 C-77.86285031 473.60070715 -82.62172055 467.2429375 -86.86328125 460.23828125 C-87.24613281 459.60825195 -87.62898438 458.97822266 -88.0234375 458.32910156 C-96.85579296 443.48462295 -102.91873479 426.77827867 -103.1015625 409.375 C-103.11367012 408.24962578 -103.11367012 408.24962578 -103.12602234 407.10151672 C-103.13980279 405.51390851 -103.15055172 403.92627143 -103.15844727 402.33862305 C-103.16986243 400.74966452 -103.1901441 399.16074106 -103.2199707 397.57202148 C-103.78364419 367.4454056 -92.00439976 340.25310252 -71.37393188 318.4932251 C-67.4947783 314.49048218 -63.53445853 310.5705969 -59.5703125 306.65234375 C-58.12805698 305.21570039 -56.68647487 303.77838069 -55.24552917 302.34042358 C-51.4958156 298.60203136 -47.73717627 294.87274627 -43.97644043 291.14544678 C-40.12261519 287.32260018 -36.27752753 283.490986 -32.43164062 279.66015625 C-24.91725935 272.1777141 -17.3933953 264.70488791 -9.86328125 257.23828125 C-11.5086824 252.97795969 -14.70080013 250.16352167 -17.8984375 247.03955078 C-18.82575432 246.12143364 -18.82575432 246.12143364 -19.77180481 245.18476868 C-21.11467542 243.85619686 -22.45977317 242.52987325 -23.80682373 241.2055397 C-25.94912477 239.09813042 -28.08416782 236.98361503 -30.21728516 234.86691284 C-36.28368956 228.84927795 -42.36083714 222.8425878 -48.44775391 216.84570312 C-52.17411357 213.17345476 -55.89022498 209.49107858 -59.60055542 205.80263901 C-61.00630056 204.409178 -62.41581073 203.01950317 -63.82937622 201.63397598 C-74.75201101 190.92581978 -84.47810147 179.76342354 -91.61328125 166.11328125 C-92.15758789 165.08110474 -92.15758789 165.08110474 -92.71289062 164.02807617 C-98.99869002 151.54130786 -102.95467207 137.3574269 -103.1015625 123.375 C-103.10963425 122.62475052 -103.11770599 121.87450104 -103.12602234 121.10151672 C-103.13980279 119.51390851 -103.15055172 117.92627143 -103.15844727 116.33862305 C-103.16986243 114.74966452 -103.1901441 113.16074106 -103.2199707 111.57202148 C-103.52901727 95.05443213 -100.5113351 80.45624523 -93.86328125 65.23828125 C-93.45722656 64.27921875 -93.05117187 63.32015625 -92.6328125 62.33203125 C-81.4129312 37.85229023 -58.94332427 16.95890195 -33.86328125 7.23828125 C-22.72167808 3.3599591 -11.86768929 0.12467435 0 0 Z M-49.296875 60.23828125 C-57.76948285 70.14233426 -62.96243409 80.86135603 -66.86328125 93.23828125 C-67.13011719 94.07359375 -67.39695313 94.90890625 -67.671875 95.76953125 C-72.29767101 113.88989078 -68.47909331 133.99494145 -59.86328125 150.23828125 C-59.445625 151.05425781 -59.02796875 151.87023437 -58.59765625 152.7109375 C-51.46317161 165.64731625 -39.27279276 175.97078986 -28.8828125 186.31640625 C-27.57551889 187.62182904 -26.26845014 188.92747704 -24.96159363 190.2333374 C-21.56255895 193.6285991 -18.16052982 197.02084413 -14.7578125 200.41241455 C-11.269628 203.89027111 -7.78436074 207.37104857 -4.29882812 210.8515625 C2.51021012 217.64995577 9.32242354 224.44515754 16.13671875 231.23828125 C22.30087188 226.14099252 27.92865396 220.58160345 33.57006836 214.91845703 C34.60535545 213.8828874 35.64086371 212.84753885 36.67657471 211.81239319 C39.46963627 209.01961697 42.25961719 206.22378185 45.04903102 203.42736292 C47.97136114 200.49875546 50.89654849 197.57300466 53.82142639 194.64694214 C59.35163618 189.11363191 64.87929323 183.57777889 70.40602452 178.04099452 C76.70154237 171.73427548 82.99992083 165.43041654 89.29853427 159.12678933 C102.24776823 146.16712014 115.19342798 133.20388598 128.13671875 120.23828125 C124.27016945 115.62086516 120.26803657 111.21738498 116.01464844 106.95507812 C115.4348674 106.37033218 114.85508636 105.78558624 114.25773621 105.18312073 C112.36076135 103.27167868 110.46003847 101.36402626 108.55859375 99.45703125 C107.90359138 98.79920151 107.24858902 98.14137177 106.5737381 97.46360779 C103.10899365 93.98393546 99.64143075 90.50710203 96.17138672 87.03271484 C92.6097609 83.46560632 89.05751064 79.88931339 85.5073967 76.31075287 C82.75505042 73.53968295 79.99592167 70.77544075 77.23496246 68.01295471 C75.9233004 66.69828878 74.61411191 65.38114963 73.30757904 64.06138611 C55.82097586 46.4103613 36.38506507 34.12949176 10.76171875 33.92578125 C-12.52609402 33.86820149 -33.25558823 43.42645232 -49.296875 60.23828125 Z M270.13671875 38.23828125 C268.57050781 38.74681641 268.57050781 38.74681641 266.97265625 39.265625 C252.78071138 44.52675496 241.7664164 55.01282555 231.30091858 65.57287598 C230.07785034 66.79204078 228.8539106 68.0103318 227.62918848 69.22783518 C224.30189425 72.54050739 220.9870157 75.86535492 217.67423141 79.19252896 C214.08576175 82.79218018 210.48569829 86.38020584 206.887146 89.96977234 C199.85445321 96.98858082 192.83248358 104.01802217 185.81427921 111.05131471 C177.63347679 119.24903077 169.44259342 127.43664373 161.25146251 135.62403733 C146.6350367 150.2345937 132.0286313 164.85512729 117.42749023 179.48095703 C103.27131723 193.66106349 89.10673812 207.83270621 74.93334961 221.99560547 C59.47989591 237.43764299 44.03120581 252.88441749 28.59067529 268.33937788 C26.9435903 269.98798865 25.2965026 271.6365967 23.64941216 273.28520203 C22.83911444 274.09625756 22.02881672 274.90731309 21.19396453 275.74294606 C15.49247364 281.44917314 9.78770063 287.15210618 4.08171272 292.85383606 C-2.87216635 299.80278238 -9.82054276 306.75717693 -16.76204478 313.71848786 C-20.30147196 317.26776739 -23.84321053 320.81465277 -27.39151192 324.35506248 C-30.64285161 327.59931883 -33.88711969 330.85048014 -37.12600989 334.10716408 C-38.29538113 335.28056249 -39.46725022 336.45147837 -40.64192855 337.61956388 C-57.66180525 354.55211155 -68.98056854 374.05881499 -69.17578125 398.61328125 C-69.19910964 408.04831759 -67.80124705 416.29833253 -64.86328125 425.23828125 C-64.35474609 426.80449219 -64.35474609 426.80449219 -63.8359375 428.40234375 C-56.96670995 446.93214618 -41.68186688 462.91542613 -23.83496094 471.17724609 C-19.25680715 473.13207247 -14.6101848 474.74379187 -9.86328125 476.23828125 C-8.59291016 476.63853516 -8.59291016 476.63853516 -7.296875 477.046875 C12.65218686 482.07750799 33.54432156 476.66343972 51.13671875 467.11328125 C55.4175407 464.50609401 59.06945348 461.666307 62.74112225 458.25791264 C63.25704431 457.77902631 63.77296637 457.30013999 64.30452244 456.80674196 C70.15009104 451.34740214 75.81365678 445.70679346 81.46626282 440.04917908 C82.65936849 438.85866476 83.8526859 437.66836262 85.04619378 436.47825152 C88.29144612 433.24098066 91.53363869 430.00066115 94.77527392 426.75976884 C98.28472241 423.25218629 101.79701233 419.74745074 105.30888367 416.24229431 C112.96817945 408.59651443 120.62375607 400.94701802 128.27850366 393.29668498 C133.06216895 388.51579089 137.84656747 383.73563103 142.63109398 378.95559883 C155.89291304 365.70595855 169.15379498 352.45538194 182.4112215 339.2013464 C183.25771116 338.35507631 184.10420082 337.50880622 184.97634168 336.63689158 C185.82476128 335.78869025 186.67318088 334.94048892 187.54731017 334.06658453 C189.26632047 332.34801769 190.98533231 330.62945241 192.7043457 328.91088867 C193.983358 327.63220852 193.983358 327.63220852 195.28820892 326.32769645 C209.12208464 312.49777362 222.96270838 298.67462509 236.80623279 284.85436111 C251.03800909 270.64630405 265.26414753 256.43262231 279.48465222 242.2132836 C287.46175203 234.23709968 295.44124257 226.26334083 303.42696571 218.29578972 C310.22139956 211.51676382 317.01066144 204.73261091 323.79326735 197.94174998 C327.25162126 194.47949347 330.71233481 191.01968714 334.1796608 187.56641388 C337.35706132 184.40177355 340.52738379 181.23021359 343.69234743 178.05313653 C344.83484582 176.90868498 345.97985489 175.76673278 347.12769226 174.62763607 C364.07538731 157.80079705 375.25524049 138.2624742 375.44921875 113.86328125 C375.50355873 91.88577663 367.02439411 72.40713358 351.94921875 56.48828125 C341.48052347 46.49940117 329.84383264 40.55836522 316.13671875 36.23828125 C314.88375 35.83802734 314.88375 35.83802734 313.60546875 35.4296875 C299.42298189 31.80915828 283.83289525 33.73726012 270.13671875 38.23828125 Z " fill="#616469" transform="translate(102.86328125,-0.23828125)"/>
<path d="M0 0 C3.3359703 1.87541395 5.6471564 3.87936106 8.35772705 6.57295227 C9.08109505 7.28602539 9.08109505 7.28602539 9.81907654 8.01350403 C11.4018567 9.57807918 12.97339759 11.15339116 14.54425049 12.72993469 C15.65478975 13.835904 16.76569731 14.9415036 17.87695312 16.04675293 C20.2051971 18.36607412 22.52769408 20.69097047 24.84649658 23.01972961 C27.78391596 25.96854411 30.73671623 28.9013693 33.69446182 31.82977772 C35.99595848 34.11269054 38.28781393 36.40510536 40.57720184 38.70015526 C41.6599229 39.78302734 42.74565406 40.86290015 43.83472443 41.93938637 C53.72575787 51.73227275 62.42489709 62.50360265 68.90362549 74.89790344 C69.26649658 75.58602112 69.62936768 76.27413879 70.00323486 76.98310852 C76.28903426 89.46987683 80.24501631 103.65375779 80.39190674 117.63618469 C80.39997849 118.38643417 80.40805023 119.13668365 80.41636658 119.90966797 C80.43014702 121.49727618 80.44089596 123.08491326 80.4487915 124.67256165 C80.46020667 126.26152017 80.48048834 127.85044363 80.51031494 129.43916321 C81.07189635 159.45396382 69.32386194 186.77377726 48.83746338 208.48970032 C42.60395126 214.8767873 35.79845124 220.14369805 28.15362549 224.77290344 C27.52359619 225.155755 26.89356689 225.53860657 26.2444458 225.93305969 C11.39996719 234.76541515 -5.30637709 240.82835698 -22.70965576 241.01118469 C-23.45990524 241.01925644 -24.21015472 241.02732819 -24.98313904 241.03564453 C-26.57074725 241.04942498 -28.15838433 241.06017392 -29.74603271 241.06806946 C-31.33499124 241.07948462 -32.9239147 241.0997663 -34.51263428 241.1295929 C-59.05184906 241.58872527 -83.18869476 234.12084555 -102.55438232 218.73921204 C-103.15610386 218.26297583 -103.75782539 217.78673962 -104.37778091 217.29607201 C-110.67177859 212.2318717 -116.39322985 206.66268955 -122.08074951 200.93696594 C-123.17652688 199.843218 -124.27274848 198.74991496 -125.36938477 197.6570282 C-127.63613272 195.39464604 -129.8975097 193.12707321 -132.15496826 190.85542297 C-135.0429298 187.95018673 -137.94441018 185.05888086 -140.84991074 182.17119789 C-143.10299204 179.92895423 -145.34888409 177.67961925 -147.592659 175.42806625 C-148.66054752 174.3581852 -149.73064497 173.29050403 -150.80303192 172.22513199 C-152.29329232 170.74250608 -153.77357624 169.25057801 -155.25164795 167.7558136 C-156.51401276 166.48986862 -156.51401276 166.48986862 -157.80187988 165.198349 C-161.92699683 160.30459852 -162.29235421 155.69402307 -162.15887451 149.49555969 C-161.53760319 144.08273331 -159.25373784 141.01661987 -155.15887451 137.39790344 C-149.76540789 134.75205189 -144.62157495 134.02644964 -138.75897217 135.58906555 C-132.60293392 137.77768762 -128.5049382 142.42625912 -124.09348679 147.04423714 C-122.52339847 148.68729945 -120.93482051 150.31040972 -119.34066772 151.93011475 C-115.95027577 155.38189524 -112.58479224 158.85736484 -109.22137451 162.33540344 C-84.57425522 188.18323389 -84.57425522 188.18323389 -52.84637451 203.77290344 C-52.01235107 204.03845032 -51.17832764 204.30399719 -50.31903076 204.57759094 C-36.14520425 208.21446031 -20.53593526 206.27175041 -6.84637451 201.77290344 C-5.80223389 201.43388 -4.75809326 201.09485657 -3.68231201 200.74555969 C12.93761901 194.58434516 26.49619975 182.02646307 35.15362549 166.77290344 C35.61639893 165.959505 36.07917236 165.14610657 36.55596924 164.30805969 C46.17122022 146.27581088 48.19806263 124.87605268 42.35284424 105.32368469 C40.64027139 100.25290711 38.66102255 95.50008436 36.15362549 90.77290344 C35.52714111 89.5489386 35.52714111 89.5489386 34.88800049 88.30024719 C28.5465876 76.80188073 18.27507147 67.83574869 8.99737549 58.72993469 C8.08219147 57.82959 7.16700745 56.9292453 6.22409058 56.00161743 C0.4849011 50.35618325 0.4849011 50.35618325 -5.27996826 44.73701477 C-8.12066099 41.98042232 -10.93675893 39.19938952 -13.75262451 36.41743469 C-15.05568542 35.16553093 -15.05568542 35.16553093 -16.3850708 33.88833618 C-21.92610925 28.37262982 -25.73328644 23.35745647 -25.89630127 15.30740356 C-25.63767617 10.19594246 -24.28751447 6.66682497 -20.84637451 2.77290344 C-14.66920663 -2.01755328 -7.31814017 -3.15491323 0 0 Z " fill="#616469" transform="translate(431.84637451171875,271.2270965576172)"/>
<path d="M0 0 C2.72256099 2.4274809 5.30265038 4.98849021 7.88549805 7.56323242 C8.6520874 8.31989197 9.41867676 9.07655151 10.20849609 9.85614014 C12.73181816 12.35035381 15.24737993 14.85220144 17.76171875 17.35546875 C19.51715401 19.09939263 21.27259126 20.84331452 23.0280304 22.5872345 C26.70266204 26.24088639 30.37263825 29.89915008 34.0402832 33.55981445 C38.73431999 38.24287199 43.44662393 42.90708302 48.16351604 47.56710339 C51.79475011 51.16104698 55.41245698 54.76837848 59.02662086 58.37948036 C60.75796412 60.10478106 62.49429582 61.82509117 64.2357235 63.54021263 C66.67247602 65.942755 69.08948181 68.36363104 71.50268555 70.78979492 C72.22118179 71.4898616 72.93967804 72.18992828 73.6799469 72.91120911 C78.70315315 78.01916611 81.82587509 83.12575423 82.08716869 90.44009686 C81.86399044 96.03411059 79.92969957 100.04888517 76 104 C70.9507671 107.72681476 65.06358601 107.86865979 59 107 C53.0911367 104.6886088 49.2982887 100.72280131 44.91503906 96.30322266 C44.12733627 95.52077682 43.33963348 94.73833099 42.52806091 93.93217468 C39.93299692 91.35028738 37.34902884 88.75761295 34.765625 86.1640625 C32.96339035 84.36384904 31.16071059 82.56408109 29.35760498 80.76473999 C25.58359889 76.99515395 21.81492365 73.22034731 18.05029297 69.44140625 C13.70240758 65.07718424 9.34380435 60.7238906 4.97950006 56.37609255 C0.77378793 52.18564906 -3.42344035 47.98678697 -7.61713409 43.7843132 C-9.39953604 41.99990932 -11.1841711 40.2177332 -12.97106171 38.43782425 C-15.46557582 35.95092201 -17.95028178 33.45461712 -20.43261719 30.95556641 C-21.17341019 30.2208461 -21.91420319 29.48612579 -22.67744446 28.72914124 C-23.35306931 28.04505692 -24.02869415 27.3609726 -24.72479248 26.65615845 C-25.31247784 26.06734201 -25.90016319 25.47852558 -26.5056572 24.87186623 C-30.20985952 20.23185243 -30.4357412 15.44566944 -30.3125 9.72265625 C-29.68107136 4.2213342 -27.39252539 1.12587159 -23.0625 -2.375 C-14.96496802 -6.67164962 -7.14843827 -5.48037019 0 0 Z " fill="#616469" transform="translate(162,273)"/>
<path d="M0 0 C4.47422296 2.6224489 7.78148884 5.98342978 11.41864014 9.65072632 C12.20634293 10.43317215 12.99404572 11.21561798 13.80561829 12.02177429 C16.40068227 14.6036616 18.98465036 17.19633603 21.5680542 19.78988647 C23.37028885 21.59009994 25.17296861 23.38986789 26.97607422 25.18920898 C30.75008031 28.95879502 34.51875555 32.73360167 38.28338623 36.51254272 C42.63127162 40.87676473 46.98987485 45.23005838 51.35417914 49.57785642 C55.55989127 53.76829992 59.75711955 57.96716201 63.95081329 62.16963577 C65.73321524 63.95403965 67.5178503 65.73621578 69.30474091 67.51612473 C71.79925502 70.00302696 74.28396098 72.49933185 76.76629639 74.99838257 C77.50708939 75.73310287 78.24788239 76.46782318 79.01112366 77.22480774 C79.6867485 77.90889206 80.36237335 78.59297638 81.05847168 79.29779053 C81.64615704 79.88660696 82.23384239 80.47542339 82.8393364 81.08208275 C86.54353872 85.72209655 86.7694204 90.50827953 86.6461792 96.23129272 C86.02490788 101.64411911 83.74104252 104.71023255 79.6461792 108.32894897 C74.11884018 111.04047378 69.02056795 111.71082631 63.0663147 109.93493652 C57.51454227 107.96336513 53.99661488 104.46191858 49.92401123 100.32064819 C49.13747665 99.54462753 48.35094208 98.76860687 47.54057312 97.96907043 C44.95896921 95.41375587 42.39979858 92.83725948 39.8414917 90.25863647 C38.04637735 88.46756678 36.25037336 86.67738833 34.45352173 84.88806152 C30.69669891 81.14007042 26.95062464 77.38177438 23.21258545 73.61508179 C18.90372334 69.27357153 14.57367197 64.95409932 10.23198235 60.64543712 C6.03913421 56.48320027 1.86340754 52.30410337 -2.30539322 48.11777115 C-4.07356947 46.34560194 -5.84618739 44.57785263 -7.62334824 42.81469345 C-10.10807592 40.34526073 -12.5726667 37.85730436 -15.03302002 35.36361694 C-15.76550461 34.64327774 -16.4979892 33.92293854 -17.25267029 33.18077087 C-22.29100203 28.01571427 -25.55546071 22.87669264 -25.72195244 15.48362541 C-25.44972866 10.37434096 -24.1078816 6.84834672 -20.6663208 2.95394897 C-14.53259043 -1.80282152 -7.34525201 -2.8816894 0 0 Z " fill="#616469" transform="translate(293.66632080078125,133.04605102539063)"/>
<path d="M0 0 C4.56613335 3.52800712 7.39203514 8.27766793 9.19921875 13.69921875 C9.93936491 21.10068035 9.35998938 27.40283133 5.19921875 33.69921875 C0.06839552 39.63538639 -6.02447095 42.33957015 -13.73828125 43.07421875 C-19.7217212 42.80331497 -24.97598186 41.19960936 -29.61328125 37.38671875 C-36.08098879 29.44067805 -37.52273703 23.80659966 -36.80078125 13.69921875 C-35.43829462 7.84159906 -31.89140751 2.74905916 -26.8984375 -0.5625 C-18.11474009 -5.08936033 -8.5846449 -4.82454279 0 0 Z " fill="#616469" transform="translate(93.80078125,371.30078125)"/>
<path d="M0 0 C2.8125 2.4375 2.8125 2.4375 5 5 C5.556875 5.639375 6.11375 6.27875 6.6875 6.9375 C10.43729327 12.83003229 11.01808841 19.38010303 9.53515625 26.109375 C7.58136475 32.07479757 4.25893075 36.88356796 -1.0390625 40.32421875 C-7.29007979 43.47181579 -13.42855224 44.11089377 -20.234375 42.45703125 C-27.12748715 40.11181828 -31.31858721 36.31099335 -35 30 C-37.15752555 23.42740562 -37.27831696 14.81260617 -34.375 8.5 C-31.03793612 2.95767363 -26.27325025 -0.46885726 -20.203125 -2.49609375 C-13.23333046 -4.09024888 -6.27476521 -3.52955543 0 0 Z " fill="#616469" transform="translate(404,60)"/>
<path d="M0 0 C5.4421136 5.4421136 7.18575268 10.92848525 7.4375 18.4375 C7.23696021 26.03185451 5.53292183 30.46707817 0.1875 35.8125 C-7.16263155 40.85670793 -13.10062028 42.06508534 -22 41 C-28.59922188 38.9811591 -33.32651809 34.92859335 -36.75 28.9375 C-39.42224998 22.65771255 -40.03912227 16.49351748 -37.875 9.9375 C-35.54146048 4.37206303 -32.07322184 0.26931949 -26.9375 -2.875 C-17.95391547 -6.31552174 -7.96624778 -5.60657723 0 0 Z " fill="#616469" transform="translate(137,414)"/>
<path d="M0 0 C5.01060708 3.64073468 7.69500772 8.33821594 8.91015625 14.37890625 C9.65081631 21.71937646 8.37162078 28.45477208 4.12890625 34.546875 C-1.09918161 40.01812974 -6.98368685 42.13036712 -14.37109375 42.921875 C-21.06232071 42.20495783 -27.0231898 40.39477895 -31.87109375 35.546875 C-37.37668337 28.0531558 -37.57929642 21.66245508 -36.87109375 12.546875 C-35.23565896 6.27114029 -31.16478487 2.09937412 -25.87109375 -1.453125 C-17.70471652 -5.63127149 -7.75126375 -4.42929357 0 0 Z " fill="#616469" transform="translate(176.87109375,371.453125)"/>
<path d="M0 0 C5.50355705 6.22077592 7.21247823 12.70301438 6.82421875 20.8984375 C5.98816488 27.39393294 3.113856 32.01505025 -1.53125 36.66015625 C-6.95484655 40.82125289 -12.57325829 41.34624343 -19.27734375 41.09765625 C-25.46662616 40.26548382 -30.29953785 38.21979345 -34.4453125 33.46484375 C-39.1448337 26.71624222 -40.37159845 20.83554615 -39.53125 12.66015625 C-37.74469851 5.93368227 -34.28003375 1.50528573 -28.53125 -2.33984375 C-20.02965408 -6.99937228 -7.57710504 -6.36996821 0 0 Z " fill="#616469" transform="translate(448.53125,103.33984375)"/>
<path d="M0 0 C5.80462403 3.34519729 8.49395006 7.25470017 10.8125 13.4375 C12.34876291 21.25847482 11.52816222 28.18420294 7.2109375 34.9609375 C2.76877342 40.59084599 -2.27169498 42.75472648 -9.3125 43.8125 C-15.93332239 44.30704314 -21.55702847 42.57248418 -27.3125 39.375 C-33.33211554 32.6674284 -35.31406004 25.94612096 -34.9140625 16.98828125 C-33.9496048 9.88222968 -30.80897451 5.67442082 -25.37890625 1.1640625 C-17.84105713 -3.75669555 -8.0666601 -3.67655873 0 0 Z " fill="#616469" transform="translate(402.5,142.0625)"/>
<path d="M0 0 C1.27746094 -0.01675781 2.55492188 -0.03351563 3.87109375 -0.05078125 C10.33053054 0.58490935 14.43298105 3.42228019 18.5625 8.3125 C23.25859879 14.75242701 23.50363387 21.56027357 22.5625 29.3125 C20.85920404 35.51088472 16.8879437 39.83601493 11.5625 43.3125 C4.98616323 46.56158999 -3.16921822 46.58311567 -10.140625 44.5078125 C-16.02186891 41.60719901 -19.53009422 37.11692796 -22.4375 31.3125 C-24.69636439 24.14788104 -23.75474581 17.41108708 -20.7734375 10.61328125 C-16.10450094 2.57233496 -8.9562935 0.02705829 0 0 Z " fill="#616469" transform="translate(121.4375,326.6875)"/>
<path d="M0 0 C5.00132768 3.04666031 8.60400881 7.99952643 10.4375 13.5 C11.05044618 21.40801051 11.58246833 29.03118018 6.4375 35.5 C2.08712443 40.09779029 -2.13290212 43.07298585 -8.54296875 43.87109375 C-16.30921004 44.03190508 -22.21226253 43.19159336 -28.5625 38.5 C-33.55439402 33.649386 -35.45841683 27.68781703 -35.62890625 20.828125 C-35.26443325 12.8318082 -32.84313219 7.61660058 -27.0625 2.125 C-19.56532693 -2.74816249 -8.3050191 -3.63746961 0 0 Z " fill="#616469" transform="translate(361.5625,100.5)"/>
</svg>
